<?xml version="1.0" standalone="no"?>
<!DOCTYPE svg PUBLIC "-//W3C//DTD SVG 20010904//EN"
 "http://www.w3.org/TR/2001/REC-SVG-20010904/DTD/svg10.dtd">
<svg version="1.0" xmlns="http://www.w3.org/2000/svg"
 width="500.000000pt" height="500.000000pt" viewBox="0 0 500.000000 500.000000"
 preserveAspectRatio="xMidYMid meet">

<g transform="translate(0.000000,500.000000) scale(0.100000,-0.100000)"
fill="#000000" stroke="none">
<path d="M2355 4994 c-229 -19 -436 -59 -619 -119 -553 -181 -1013 -533 -1331
-1020 -100 -152 -222 -395 -210 -415 3 -5 0 -10 -5 -12 -6 -2 -12 -10 -13 -18
-2 -8 -6 -21 -10 -27 -5 -7 -5 -13 0 -13 13 1 43 27 43 38 0 5 9 8 20 5 15 -4
31 5 57 31 48 47 65 51 116 27 50 -24 83 -27 94 -7 9 15 61 27 65 14 2 -4 29
-13 61 -18 48 -8 63 -6 83 7 13 8 24 19 24 24 0 5 9 9 20 9 20 0 43 36 33 53
-2 4 7 11 20 16 14 6 27 15 29 22 3 10 11 10 37 -1 30 -12 35 -12 46 4 9 11
30 18 63 21 52 3 92 19 92 36 0 5 10 23 21 39 18 24 28 28 60 26 22 -2 48 -11
59 -21 11 -10 36 -21 57 -25 21 -4 46 -11 55 -15 12 -5 26 2 47 22 19 20 40
30 63 31 96 5 116 8 129 19 8 6 30 14 50 18 33 6 37 4 43 -19 3 -14 11 -26 16
-26 6 0 10 -6 10 -12 1 -21 71 -61 83 -49 6 6 24 11 39 11 15 0 28 4 28 10 0
5 6 7 14 4 8 -3 24 4 35 15 18 18 21 33 21 117 0 88 2 96 20 101 11 3 32 25
46 48 14 24 31 46 39 49 8 3 15 12 15 20 0 7 9 16 20 19 24 6 28 52 5 61 -17
6 -20 32 -6 41 6 3 24 -3 42 -14 36 -22 49 -19 49 9 0 13 14 27 40 40 44 22
47 34 26 85 -8 19 -18 56 -22 82 -4 26 -13 57 -20 68 -18 25 -18 35 1 35 9 0
15 6 14 13 -4 30 2 48 19 53 50 16 72 27 72 36 0 6 -7 8 -15 4 -22 -8 -18 10
9 39 14 15 30 24 35 20 22 -13 9 31 -19 69 -17 22 -30 45 -30 52 0 7 -9 22
-21 33 -28 26 -21 55 14 59 27 3 67 -20 67 -40 0 -4 12 -22 28 -39 15 -17 27
-40 27 -52 1 -29 47 -61 78 -53 17 4 26 15 31 37 5 25 10 30 28 27 13 -2 22
-9 20 -16 -2 -9 9 -12 35 -10 24 2 37 8 36 16 -2 6 2 12 7 12 6 0 10 -4 10 -9
0 -22 55 -17 108 10 l55 28 46 -24 c43 -21 52 -22 141 -14 l95 9 33 -36 c17
-21 32 -45 32 -55 0 -10 5 -21 10 -24 6 -4 17 -22 25 -41 8 -19 20 -34 28 -34
22 0 42 30 39 56 -2 12 5 35 15 50 10 15 23 46 28 68 8 35 17 44 56 64 29 14
72 25 115 28 37 2 69 6 71 8 4 3 -180 74 -262 101 -225 74 -656 127 -880 109z
m199 -35 c-4 -6 -12 -5 -22 3 -12 10 -16 10 -19 1 -6 -18 -23 -16 -23 1 0 8 8
16 18 19 22 5 54 -11 46 -24z m-98 -18 c-7 -11 -86 -20 -86 -9 0 8 26 15 63
17 16 0 26 -3 23 -8z m249 -118 c30 -33 34 -54 4 -27 -21 19 -44 54 -35 54 3
0 17 -12 31 -27z m-100 -78 c0 -23 -5 -30 -19 -30 -10 0 -22 10 -27 23 -6 15
-5 21 1 17 6 -3 10 1 10 10 0 10 7 15 18 13 12 -2 17 -13 17 -33z m-471 -282
c-8 -34 -10 -37 -22 -29 -7 4 -6 15 1 31 16 33 29 32 21 -2z"/>
<path d="M3390 4202 c0 -11 7 -25 16 -33 14 -11 15 -9 12 16 -3 32 -28 47 -28
17z"/>
<path d="M2400 3664 c-369 -22 -790 -176 -1170 -429 -187 -124 -199 -134 -275
-211 -94 -95 -129 -160 -130 -240 0 -86 33 -133 129 -179 72 -35 284 -84 369
-86 101 -2 94 -12 -50 -68 -179 -70 -453 -202 -592 -285 -107 -65 -229 -150
-243 -171 -7 -10 -12 -1 -9 17 0 4 -5 5 -13 2 -26 -10 -10 78 19 101 16 13 25
31 25 49 0 15 14 56 30 90 27 56 30 68 21 105 -5 25 -26 62 -50 90 -54 65 -59
89 -27 124 14 16 26 36 26 46 0 10 9 26 20 36 11 10 20 28 20 41 0 30 -37 85
-74 109 -29 19 -39 35 -84 135 -32 72 -34 82 -16 101 33 37 -15 139 -66 139
-8 0 -28 16 -43 35 -15 19 -37 35 -48 35 -11 0 -19 3 -17 8 2 4 10 20 18 35
12 25 12 30 -1 38 -12 7 -12 9 1 10 8 1 18 1 22 1 3 -1 9 5 12 13 6 18 5 18
-27 6 -20 -8 -30 -29 -61 -124 -75 -235 -109 -465 -109 -737 -1 -199 10 -302
49 -505 41 -206 151 -519 179 -505 10 5 10 15 2 103 -3 26 0 50 5 53 5 3 8 13
7 22 -10 62 47 168 84 158 13 -3 17 0 13 10 -3 8 -2 12 3 9 13 -8 9 -45 -4
-38 -5 4 -7 3 -3 -2 4 -4 2 -15 -5 -24 -10 -14 -10 -14 4 -4 12 10 18 10 27 1
6 -6 20 -13 29 -14 41 -6 167 -32 158 -33 -6 -1 -10 -13 -9 -28 3 -64 2 -63
34 -52 17 6 30 17 30 24 0 7 3 20 6 29 4 11 -2 19 -17 26 -21 9 -19 9 10 4 19
-3 31 -2 28 3 -3 5 8 10 24 11 22 2 28 -1 23 -10 -6 -9 -3 -9 9 1 9 7 17 10
17 5 0 -5 4 -4 8 2 4 5 57 20 117 33 61 12 177 42 259 67 82 25 150 43 152 42
2 -2 -27 -27 -64 -56 -91 -72 -193 -173 -189 -186 10 -29 43 -12 129 66 205
184 279 233 459 304 176 69 355 148 561 247 155 74 156 75 162 51 7 -28 41
-39 92 -29 27 5 55 25 111 81 41 41 72 67 69 57 -25 -86 -15 -113 45 -113 22
0 49 5 60 10 16 9 19 7 19 -13 0 -64 72 -59 156 9 31 25 56 44 57 42 36 -71
57 -81 118 -55 41 17 138 93 146 113 12 31 -8 25 -82 -25 -42 -28 -83 -51 -91
-51 -19 0 -18 26 6 95 20 59 16 85 -15 85 -7 0 -49 -39 -93 -87 -88 -96 -142
-137 -142 -107 0 9 14 55 32 101 23 61 29 86 20 95 -19 19 -40 1 -68 -62 -25
-56 -78 -110 -108 -110 -26 0 36 170 165 454 37 82 66 153 63 158 -9 14 -40 9
-56 -9 -8 -10 -60 -101 -116 -203 -56 -102 -106 -192 -111 -199 -6 -10 -24
-14 -50 -13 -87 6 -182 -47 -210 -116 -10 -24 -18 -29 -51 -30 -161 -7 -455
-133 -779 -335 -198 -123 -736 -275 -938 -265 -61 3 -77 7 -95 27 -13 13 -18
21 -12 18 8 -5 45 50 48 73 1 3 5 12 11 20 8 13 7 13 -8 1 -9 -7 -14 -18 -10
-24 4 -6 1 -7 -7 -2 -7 5 -11 4 -7 -1 3 -5 -1 -20 -10 -34 -9 -16 -12 -18 -7
-5 3 11 7 26 7 33 0 18 86 100 162 157 71 52 306 187 420 240 277 129 484 202
619 220 59 8 136 20 171 26 63 11 125 40 125 59 0 35 -107 30 -280 -14 -135
-34 -206 -39 -350 -22 -222 27 -360 76 -400 141 -30 49 -26 118 9 180 46 80
152 180 316 297 387 277 993 483 1292 439 106 -15 229 -62 283 -108 42 -36 72
-40 78 -10 5 27 -54 73 -139 106 -114 45 -233 63 -369 55z m130 -1177 c0 -15
-79 -111 -119 -144 -42 -35 -55 -30 -47 18 8 50 37 94 80 120 36 22 86 25 86
6z m-388 -173 c-35 -24 -382 -168 -382 -158 0 12 358 169 395 173 5 1 -1 -6
-13 -15z"/>
<path d="M4408 2863 c7 -3 16 -2 19 1 4 3 -2 6 -13 5 -11 0 -14 -3 -6 -6z"/>
<path d="M4428 2843 c7 -3 16 -2 19 1 4 3 -2 6 -13 5 -11 0 -14 -3 -6 -6z"/>
<path d="M3953 2723 c-9 -16 -20 -33 -25 -39 -9 -12 92 -10 157 4 l40 8 -58
14 c-31 7 -62 19 -68 27 -17 19 -27 16 -46 -14z"/>
<path d="M4340 2715 c-8 -9 -8 -15 -2 -15 12 0 26 19 19 26 -2 2 -10 -2 -17
-11z"/>
<path d="M4167 2693 l-37 -4 31 -26 c26 -22 34 -25 50 -15 11 7 30 10 44 6 15
-4 25 -2 25 5 0 6 -4 11 -10 11 -5 0 -7 7 -4 15 6 16 -10 17 -99 8z"/>
<path d="M4289 2693 c0 -5 -2 -23 -5 -40 -2 -18 0 -33 5 -33 13 0 21 28 14 47
-4 11 -3 14 5 9 7 -4 12 -1 12 8 0 16 -29 23 -31 9z"/>
<path d="M4360 2671 c0 -17 2 -31 4 -31 8 0 13 51 5 56 -5 3 -9 -9 -9 -25z"/>
<path d="M3601 2631 c-21 -21 -41 -61 -41 -82 0 -17 29 -9 50 13 43 47 34 112
-9 69z"/>
<path d="M4115 2531 c-48 -22 -79 -54 -100 -103 -15 -37 -73 -78 -110 -78 -19
0 -19 4 2 62 14 39 14 49 4 62 -20 24 -60 19 -117 -13 l-52 -28 2 30 c2 59
-28 44 -76 -36 -27 -47 -87 -87 -128 -87 -26 0 -25 15 4 83 26 57 25 67 -5 67
-34 0 -98 -145 -79 -180 14 -26 59 -33 108 -16 23 8 42 11 42 6 0 -13 47 -13
55 -1 12 20 157 131 170 131 12 0 12 -7 -1 -42 -32 -93 8 -118 111 -69 66 30
66 31 87 11 58 -54 214 -31 319 46 89 65 55 73 -62 15 -132 -66 -219 -66 -219
0 0 24 11 42 45 77 42 42 48 44 84 38 43 -7 60 6 41 29 -17 20 -77 18 -125 -4z"/>
<path d="M640 1704 c0 -8 5 -12 10 -9 6 4 8 11 5 16 -9 14 -15 11 -15 -7z"/>
<path d="M236 1457 c3 -10 9 -15 12 -12 3 3 0 11 -7 18 -10 9 -11 8 -5 -6z"/>
<path d="M420 1419 c-22 -14 -36 -17 -43 -10 -11 11 -44 -2 -65 -28 -12 -14
-13 -14 -8 2 3 10 2 15 -3 12 -5 -3 -12 -1 -16 5 -8 13 -25 13 -25 0 0 -5 7
-10 16 -10 9 0 14 -7 13 -17 -3 -24 27 -93 41 -93 6 0 9 -4 6 -9 -7 -11 102
-184 181 -288 340 -446 865 -786 1408 -913 372 -87 808 -85 1169 6 188 48 389
124 566 217 116 61 132 72 122 82 -4 5 -1 5 5 1 10 -5 73 29 112 61 3 2 -4 10
-15 18 -13 11 -32 14 -64 10 -108 -14 -183 13 -217 79 -12 24 -19 27 -46 23
-24 -4 -44 3 -79 25 l-48 30 -46 -22 c-32 -16 -42 -25 -33 -31 21 -13 3 -22
-19 -10 -29 15 -52 14 -52 -4 0 -20 -16 -19 -37 2 -31 31 -58 19 -65 -27 -2
-15 -11 -26 -23 -28 -11 -2 -29 -12 -40 -22 -20 -18 -64 -30 -122 -33 -18 -1
-41 -12 -53 -25 -30 -32 -84 -30 -115 4 -14 15 -25 33 -25 41 0 23 -26 26 -62
7 -32 -17 -53 -20 -206 -26 -61 -3 -75 0 -83 15 -6 9 -18 17 -28 17 -10 0 -35
7 -54 15 -20 8 -52 15 -71 15 -19 0 -47 5 -61 10 -28 11 -53 2 -90 -30 -11
-10 -39 -20 -63 -24 -35 -5 -47 -3 -65 14 -14 14 -29 19 -45 15 -13 -3 -42 3
-66 14 -66 29 -120 35 -139 17 -16 -17 -45 -21 -62 -8 -6 4 -22 30 -37 58 -21
39 -26 59 -21 87 4 29 2 37 -9 37 -8 0 -18 -3 -22 -7 -18 -19 -178 -22 -184
-4 -2 6 3 11 12 11 19 0 22 36 4 43 -9 3 -6 13 10 33 12 16 27 41 33 57 6 15
15 27 20 27 5 0 9 14 9 30 0 23 -4 30 -20 30 -13 0 -24 10 -30 25 -14 37 -81
96 -103 91 -19 -5 -47 38 -47 74 0 19 -4 22 -32 24 -7 1 -16 5 -20 10 -3 5
-73 11 -154 13 -82 2 -153 8 -160 14 -8 7 -14 7 -19 -1 -3 -5 -24 -10 -46 -10
-35 0 -39 3 -39 24 0 14 -6 31 -13 38 -7 7 -21 24 -30 38 -11 16 -27 25 -45
25 -23 0 -28 5 -30 30 -2 17 -7 35 -12 40 -4 6 -10 22 -14 37 -7 32 -24 36
-157 42 -83 4 -100 2 -129 -15z"/>
</g>
</svg>
